<?xml version="1.0" encoding="UTF-8" standalone="no"?>
<!-- Created with Inkscape (http://www.inkscape.org/) -->

<svg
   xmlns:dc="http://purl.org/dc/elements/1.1/"
   xmlns:cc="http://creativecommons.org/ns#"
   xmlns:rdf="http://www.w3.org/1999/02/22-rdf-syntax-ns#"
   xmlns:svg="http://www.w3.org/2000/svg"
   xmlns="http://www.w3.org/2000/svg"
   xmlns:xlink="http://www.w3.org/1999/xlink"
   version="1.1"
   width="443.84375"
   height="443.4866"
   id="svg2">
  <defs
     id="defs4">
    <radialGradient
       cx="61.518883"
       cy="132.28575"
       r="29.036913"
       fx="61.518883"
       fy="132.28575"
       id="radialGradient1480"
       xlink:href="#linearGradient2795"
       gradientUnits="userSpaceOnUse"
       gradientTransform="matrix(2.382716e-8,-0.296405,1.43676,4.683673e-7,-128.544,150.5202)" />
    <linearGradient
       x1="26.648937"
       y1="20.603781"
       x2="135.66525"
       y2="114.39767"
       id="linearGradient1478"
       xlink:href="#linearGradient4689"
       gradientUnits="userSpaceOnUse"
       gradientTransform="matrix(0.562541,0,0,0.567972,235.0494,-339.34626)" />
    <linearGradient
       x1="150.96111"
       y1="192.35176"
       x2="112.03144"
       y2="137.27299"
       id="linearGradient1475"
       xlink:href="#linearGradient4671"
       gradientUnits="userSpaceOnUse"
       gradientTransform="matrix(0.562541,0,0,0.567972,235.0494,-339.34626)" />
    <radialGradient
       cx="61.518883"
       cy="132.28575"
       r="29.036913"
       fx="61.518883"
       fy="132.28575"
       id="radialGradient2801"
       xlink:href="#linearGradient2795"
       gradientUnits="userSpaceOnUse"
       gradientTransform="matrix(1,0,0,0.177966,0,108.7434)" />
    <linearGradient
       x1="172.94208"
       y1="76.176224"
       x2="26.670298"
       y2="76.313133"
       id="linearGradient2258"
       xlink:href="#linearGradient4689"
       gradientUnits="userSpaceOnUse"
       gradientTransform="matrix(0.562541,0,0,0.567972,-11.5974,-7.60954)" />
    <linearGradient
       x1="224.23996"
       y1="144.75717"
       x2="-65.308502"
       y2="144.75717"
       id="linearGradient2255"
       xlink:href="#linearGradient4671"
       gradientUnits="userSpaceOnUse"
       gradientTransform="matrix(0.562541,0,0,0.567972,-11.5974,-7.60954)" />
    <linearGradient
       x1="224.23996"
       y1="144.75717"
       x2="-65.308502"
       y2="144.75717"
       id="linearGradient2250"
       xlink:href="#linearGradient4671"
       gradientUnits="userSpaceOnUse"
       gradientTransform="translate(100.2702,99.61116)" />
    <linearGradient
       x1="172.94208"
       y1="77.475983"
       x2="26.670298"
       y2="76.313133"
       id="linearGradient2248"
       xlink:href="#linearGradient4689"
       gradientUnits="userSpaceOnUse"
       gradientTransform="translate(100.2702,99.61116)" />
    <linearGradient
       x1="224.23996"
       y1="144.75717"
       x2="-65.308502"
       y2="144.75717"
       id="linearGradient2589"
       xlink:href="#linearGradient4671"
       gradientUnits="userSpaceOnUse"
       gradientTransform="translate(100.2702,99.61116)" />
    <linearGradient
       x1="172.94208"
       y1="77.475983"
       x2="26.670298"
       y2="76.313133"
       id="linearGradient2587"
       xlink:href="#linearGradient4689"
       gradientUnits="userSpaceOnUse"
       gradientTransform="translate(100.2702,99.61116)" />
    <linearGradient
       x1="172.94208"
       y1="77.475983"
       x2="26.670298"
       y2="76.313133"
       id="linearGradient2990"
       xlink:href="#linearGradient4689"
       gradientUnits="userSpaceOnUse"
       gradientTransform="translate(100.2702,99.61116)" />
    <linearGradient
       x1="224.23996"
       y1="144.75717"
       x2="-65.308502"
       y2="144.75717"
       id="linearGradient2987"
       xlink:href="#linearGradient4671"
       gradientUnits="userSpaceOnUse"
       gradientTransform="translate(100.2702,99.61116)" />
    <linearGradient
       id="linearGradient4689">
      <stop
         id="stop4691"
         style="stop-color:#5a9fd4;stop-opacity:1"
         offset="0" />
      <stop
         id="stop4693"
         style="stop-color:#306998;stop-opacity:1"
         offset="1" />
    </linearGradient>
    <linearGradient
       id="linearGradient4671">
      <stop
         id="stop4673"
         style="stop-color:#ffd43b;stop-opacity:1"
         offset="0" />
      <stop
         id="stop4675"
         style="stop-color:#ffe873;stop-opacity:1"
         offset="1" />
    </linearGradient>
    <linearGradient
       id="linearGradient3236">
      <stop
         id="stop3244"
         style="stop-color:#f4f4f4;stop-opacity:1"
         offset="0" />
      <stop
         id="stop3240"
         style="stop-color:#ffffff;stop-opacity:1"
         offset="1" />
    </linearGradient>
    <linearGradient
       id="linearGradient3676">
      <stop
         id="stop3678"
         style="stop-color:#b2b2b2;stop-opacity:0.5"
         offset="0" />
      <stop
         id="stop3680"
         style="stop-color:#b3b3b3;stop-opacity:0"
         offset="1" />
    </linearGradient>
    <linearGradient
       id="linearGradient2787">
      <stop
         id="stop2789"
         style="stop-color:#7f7f7f;stop-opacity:0.5"
         offset="0" />
      <stop
         id="stop2791"
         style="stop-color:#7f7f7f;stop-opacity:0"
         offset="1" />
    </linearGradient>
    <linearGradient
       id="linearGradient2795">
      <stop
         id="stop2797"
         style="stop-color:#b8b8b8;stop-opacity:0.49803922"
         offset="0" />
      <stop
         id="stop2799"
         style="stop-color:#7f7f7f;stop-opacity:0"
         offset="1" />
    </linearGradient>
  </defs>
  <metadata
     id="metadata7">
    <rdf:RDF>
      <cc:Work
         rdf:about="">
        <dc:format>image/svg+xml</dc:format>
        <dc:type
           rdf:resource="http://purl.org/dc/dcmitype/StillImage" />
        <dc:title></dc:title>
      </cc:Work>
    </rdf:RDF>
  </metadata>
  <g
     transform="translate(-200.22767,-302.94643)"
     id="layer1">
    <path
       d="m 154.28571,422.36218 a 50,50 0 1 1 -99.999997,0 50,50 0 1 1 99.999997,0 z"
       id="path2985"
       style="fill:#000000;fill-opacity:0;stroke:none" />
    <path
       d="m 242.22025,246.6479 a 73.96727,45.714287 0 1 1 -147.934544,0 73.96727,45.714287 0 1 1 147.934544,0 z"
       id="path2987"
       style="fill:#000000;fill-opacity:0;stroke:none" />
    <path
       d="m 268.57143,468.07648 a 65.714287,64.285713 0 1 1 -131.42857,0 65.714287,64.285713 0 1 1 131.42857,0 z"
       id="path2989"
       style="fill:#000000;fill-opacity:0;stroke:none" />
    <path
       d="m 300.00001,373.79074 a 21.428572,21.428572 0 1 1 -42.85714,0 21.428572,21.428572 0 1 1 42.85714,0 z"
       transform="translate(-6.4285721,1.4285714)"
       id="path2993"
       style="fill:#000000;fill-opacity:1;stroke:#000000;stroke-opacity:1" />
    <path
       d="m 300.00001,373.79074 a 21.428572,21.428572 0 1 1 -42.85714,0 21.428572,21.428572 0 1 1 42.85714,0 z"
       transform="translate(-6.4285841,100.71429)"
       id="path2993-6"
       style="fill:#000000;fill-opacity:1;stroke:#000000;stroke-opacity:1" />
    <path
       d="m 300.00001,373.79074 a 21.428572,21.428572 0 1 1 -42.85714,0 21.428572,21.428572 0 1 1 42.85714,0 z"
       transform="translate(-6.4285841,200.7143)"
       id="path2993-6-7"
       style="fill:#d40000;fill-opacity:1;stroke:#000000;stroke-opacity:1" />
    <path
       d="m 300.00001,373.79074 a 21.428572,21.428572 0 1 1 -42.85714,0 21.428572,21.428572 0 1 1 42.85714,0 z"
       transform="translate(-6.4285841,300.7143)"
       id="path2993-6-7-1"
       style="fill:#000000;fill-opacity:1;stroke:#000000;stroke-opacity:1" />
    <path
       d="m 300.00001,373.79074 a 21.428572,21.428572 0 1 1 -42.85714,0 21.428572,21.428572 0 1 1 42.85714,0 z"
       transform="translate(93.571421,1.0714336)"
       id="path2993-5"
       style="fill:#000000;fill-opacity:1;stroke:#000000;stroke-opacity:1" />
    <path
       d="m 300.00001,373.79074 a 21.428572,21.428572 0 1 1 -42.85714,0 21.428572,21.428572 0 1 1 42.85714,0 z"
       transform="translate(93.571411,100.35715)"
       id="path2993-6-4"
       style="fill:#d40000;fill-opacity:1;stroke:#000000;stroke-opacity:1" />
    <path
       d="m 300.00001,373.79074 a 21.428572,21.428572 0 1 1 -42.85714,0 21.428572,21.428572 0 1 1 42.85714,0 z"
       transform="translate(93.571411,200.35717)"
       id="path2993-6-7-5"
       style="fill:#d40000;fill-opacity:1;stroke:#000000;stroke-opacity:1" />
    <path
       d="m 300.00001,373.79074 a 21.428572,21.428572 0 1 1 -42.85714,0 21.428572,21.428572 0 1 1 42.85714,0 z"
       transform="translate(93.571411,300.35716)"
       id="path2993-6-7-1-6"
       style="fill:#d40000;fill-opacity:1;stroke:#000000;stroke-opacity:1" />
    <path
       d="m 300.00001,373.79074 a 21.428572,21.428572 0 1 1 -42.85714,0 21.428572,21.428572 0 1 1 42.85714,0 z"
       transform="translate(193.57142,1.0714341)"
       id="path2993-5-9"
       style="fill:#000000;fill-opacity:1;stroke:#000000;stroke-opacity:1" />
    <path
       d="m 300.00001,373.79074 a 21.428572,21.428572 0 1 1 -42.85714,0 21.428572,21.428572 0 1 1 42.85714,0 z"
       transform="translate(193.57141,100.35715)"
       id="path2993-6-4-4"
       style="fill:#d40000;fill-opacity:1;stroke:#000000;stroke-opacity:1" />
    <path
       d="m 300.00001,373.79074 a 21.428572,21.428572 0 1 1 -42.85714,0 21.428572,21.428572 0 1 1 42.85714,0 z"
       transform="translate(193.57141,200.35717)"
       id="path2993-6-7-5-2"
       style="fill:#d40000;fill-opacity:1;stroke:#000000;stroke-opacity:1" />
    <path
       d="m 300.00001,373.79074 a 21.428572,21.428572 0 1 1 -42.85714,0 21.428572,21.428572 0 1 1 42.85714,0 z"
       transform="translate(193.57141,300.35716)"
       id="path2993-6-7-1-6-6"
       style="fill:#d40000;fill-opacity:1;stroke:#000000;stroke-opacity:1" />
    <path
       d="m 300.00001,373.79074 a 21.428572,21.428572 0 1 1 -42.85714,0 21.428572,21.428572 0 1 1 42.85714,0 z"
       transform="translate(293.57142,1.0714359)"
       id="path2993-5-2"
       style="fill:#000000;fill-opacity:1;stroke:#000000;stroke-opacity:1" />
    <path
       d="m 300.00001,373.79074 a 21.428572,21.428572 0 1 1 -42.85714,0 21.428572,21.428572 0 1 1 42.85714,0 z"
       transform="translate(293.57141,100.35715)"
       id="path2993-6-4-0"
       style="fill:#000000;fill-opacity:1;stroke:#000000;stroke-opacity:1" />
    <path
       d="m 300.00001,373.79074 a 21.428572,21.428572 0 1 1 -42.85714,0 21.428572,21.428572 0 1 1 42.85714,0 z"
       transform="translate(293.57141,200.35717)"
       id="path2993-6-7-5-27"
       style="fill:#000000;fill-opacity:1;stroke:#000000;stroke-opacity:1" />
    <path
       d="m 300.00001,373.79074 a 21.428572,21.428572 0 1 1 -42.85714,0 21.428572,21.428572 0 1 1 42.85714,0 z"
       transform="translate(293.57141,300.35717)"
       id="path2993-6-7-1-6-9"
       style="fill:#d40000;fill-opacity:1;stroke:#000000;stroke-opacity:1" />
    <rect
       width="56.42857"
       height="3.5714285"
       ry="0.98051685"
       x="293.57144"
       y="374.50504"
       id="rect3136"
       style="fill:#000000;fill-opacity:1;stroke:#000000;stroke-opacity:1" />
    <rect
       width="56.42857"
       height="3.5714285"
       ry="0.98051685"
       x="394.64285"
       y="473.43359"
       id="rect3136-2"
       style="fill:#d40000;fill-opacity:1;stroke:#000000;stroke-opacity:1" />
    <rect
       width="56.42857"
       height="3.5714285"
       ry="0.98051685"
       x="493.92859"
       y="672.71936"
       id="rect3136-8"
       style="fill:#d40000;fill-opacity:1;stroke:#000000;stroke-opacity:1" />
    <rect
       width="56.42857"
       height="3.5714285"
       ry="0.98051685"
       x="393.21429"
       y="673.43359"
       id="rect3136-9"
       style="fill:#d40000;fill-opacity:1;stroke:#000000;stroke-opacity:1" />
    <rect
       width="56.42857"
       height="3.5714285"
       ry="0.98051685"
       x="293.92859"
       y="573.43365"
       id="rect3136-81"
       style="fill:#d40000;fill-opacity:1;stroke:#000000;stroke-opacity:1" />
    <rect
       width="56.42857"
       height="3.5714285"
       ry="0.98051685"
       x="496.29077"
       y="-373.92856"
       transform="matrix(0,1,-1,0,0,0)"
       id="rect3136-97"
       style="fill:#d40000;fill-opacity:1;stroke:#000000;stroke-opacity:1" />
    <rect
       width="56.42857"
       height="3.5714285"
       ry="0.98051685"
       x="495.57648"
       y="-473.92859"
       transform="matrix(0,1,-1,0,0,0)"
       id="rect3136-97-2"
       style="fill:#d40000;fill-opacity:1;stroke:#000000;stroke-opacity:1" />
    <rect
       width="56.42857"
       height="3.5714285"
       ry="0.98051685"
       x="595.57648"
       y="-473.92856"
       transform="matrix(0,1,-1,0,0,0)"
       id="rect3136-97-4"
       style="fill:#d40000;fill-opacity:1;stroke:#000000;stroke-opacity:1" />
    <rect
       width="56.42857"
       height="3.5714285"
       ry="0.98051685"
       x="396.29074"
       y="-574.64288"
       transform="matrix(0,1,-1,0,0,0)"
       id="rect3136-97-0"
       style="fill:#000000;fill-opacity:1;stroke:#000000;stroke-opacity:1" />
    <rect
       width="56.42857"
       height="3.5714285"
       ry="0.98051685"
       x="493.21429"
       y="374.14792"
       id="rect3136-9-3"
       style="fill:#000000;fill-opacity:1;stroke:#000000;stroke-opacity:1" />
    <g
       transform="matrix(0.72232378,0,0,0.72232378,200.93146,722.01154)"
       id="g3390">
      <path
         d="m 304.9593,-327.64297 c -4.58365,0.0213 -8.96094,0.41222 -12.8125,1.09375 -11.34622,2.00451 -13.40625,6.20011 -13.40625,13.9375 l 0,10.21875 26.8125,0 0,3.40625 -26.8125,0 -10.0625,0 c -7.79246,0 -14.61576,4.68372 -16.75,13.59375 -2.46182,10.21297 -2.57102,16.58603 0,27.25 1.90593,7.93786 6.45754,13.59375 14.25,13.59375 l 9.21875,0 0,-12.25 c 0,-8.8499 7.65714,-16.65624 16.75,-16.65625 l 26.78125,0 c 7.45495,0 13.40625,-6.13816 13.40625,-13.625 l 0,-25.53125 c 0,-7.26633 -6.12998,-12.72477 -13.40625,-13.9375 -4.60599,-0.76672 -9.3851,-1.11504 -13.96875,-1.09375 z m -14.5,8.21875 c 2.76955,0 5.03125,2.29865 5.03125,5.125 0,2.81634 -2.2617,5.09375 -5.03125,5.09375 -2.77948,0 -5.03125,-2.27741 -5.03125,-5.09375 0,-2.82635 2.25177,-5.125 5.03125,-5.125 z"
         id="path1948"
         style="fill:url(#linearGradient1478);fill-opacity:1" />
      <path
         d="m 335.67805,-298.98672 0,11.90625 c 0,9.23076 -7.82589,17 -16.75,17 l -26.78125,0 c -7.33583,0 -13.40625,6.27849 -13.40625,13.625 l 0,25.53125 c 0,7.26634 6.31859,11.54032 13.40625,13.625 8.48733,2.49561 16.62624,2.94663 26.78125,0 6.75016,-1.95439 13.40625,-5.88761 13.40625,-13.625 l 0,-10.21875 -26.78125,0 0,-3.40625 26.78125,0 13.40625,0 c 7.79246,0 10.69625,-5.4354 13.40624,-13.59375 2.79933,-8.39888 2.68022,-16.47577 0,-27.25 -1.92578,-7.75744 -5.60387,-13.59375 -13.40624,-13.59375 l -10.0625,0 z m -15.0625,64.65625 c 2.77948,1e-5 5.03125,2.27742 5.03125,5.09375 0,2.82635 -2.25177,5.125 -5.03125,5.125 -2.76955,0 -5.03125,-2.29865 -5.03125,-5.125 0,-2.81633 2.2617,-5.09375 5.03125,-5.09375 z"
         id="path1950"
         style="fill:url(#linearGradient1475);fill-opacity:1" />
      <path
         d="m 110.46717,132.28575 a 48.948284,8.6066771 0 1 1 -97.896571,0 48.948284,8.6066771 0 1 1 97.896571,0 z"
         transform="matrix(0.73406,0,0,0.809524,263.46756,-304.26275)"
         id="path1894"
         style="opacity:0.44382025;fill:url(#radialGradient1480);fill-opacity:1;fill-rule:nonzero;stroke:none" />
    </g>
  </g>
</svg>
